<mxfile host="app.diagrams.net" modified="2023-01-24T11:49:44.444Z" agent="5.0 (Windows NT 10.0; Win64; x64) AppleWebKit/537.36 (KHTML, like Gecko) Chrome/109.0.0.0 Safari/537.36" version="20.6.0" etag="1f4vk2P3oV0vCqhB8rhZ" type="github">
  <diagram id="UcpRtEiMbgY17D5e3Dg8" name="Page-1">
    <mxGraphModel dx="1888" dy="547" grid="1" gridSize="10" guides="1" tooltips="1" connect="1" arrows="1" fold="1" page="1" pageScale="1" pageWidth="850" pageHeight="1100" math="0" shadow="0">
      <root>
        <mxCell id="0" />
        <mxCell id="1" parent="0" />
        <mxCell id="5ZATOCqqzYXws7eYpptF-3" value="" style="edgeStyle=orthogonalEdgeStyle;rounded=0;orthogonalLoop=1;jettySize=auto;html=1;" edge="1" parent="1" source="5ZATOCqqzYXws7eYpptF-1" target="5ZATOCqqzYXws7eYpptF-2">
          <mxGeometry relative="1" as="geometry" />
        </mxCell>
        <mxCell id="5ZATOCqqzYXws7eYpptF-6" style="edgeStyle=orthogonalEdgeStyle;rounded=0;orthogonalLoop=1;jettySize=auto;html=1;" edge="1" parent="1" source="5ZATOCqqzYXws7eYpptF-1" target="5ZATOCqqzYXws7eYpptF-4">
          <mxGeometry relative="1" as="geometry" />
        </mxCell>
        <mxCell id="5ZATOCqqzYXws7eYpptF-1" value="Modules&amp;nbsp;" style="rounded=0;whiteSpace=wrap;html=1;" vertex="1" parent="1">
          <mxGeometry x="240" y="170" width="120" height="60" as="geometry" />
        </mxCell>
        <mxCell id="5ZATOCqqzYXws7eYpptF-14" value="" style="edgeStyle=orthogonalEdgeStyle;rounded=0;orthogonalLoop=1;jettySize=auto;html=1;" edge="1" parent="1" source="5ZATOCqqzYXws7eYpptF-2" target="5ZATOCqqzYXws7eYpptF-13">
          <mxGeometry relative="1" as="geometry" />
        </mxCell>
        <mxCell id="5ZATOCqqzYXws7eYpptF-2" value="User Managment&amp;nbsp;" style="whiteSpace=wrap;html=1;rounded=0;" vertex="1" parent="1">
          <mxGeometry x="-150" y="310" width="120" height="60" as="geometry" />
        </mxCell>
        <mxCell id="5ZATOCqqzYXws7eYpptF-8" value="" style="edgeStyle=orthogonalEdgeStyle;rounded=0;orthogonalLoop=1;jettySize=auto;html=1;" edge="1" parent="1" source="5ZATOCqqzYXws7eYpptF-4" target="5ZATOCqqzYXws7eYpptF-7">
          <mxGeometry relative="1" as="geometry" />
        </mxCell>
        <mxCell id="5ZATOCqqzYXws7eYpptF-4" value="Deal Manament&amp;nbsp;" style="whiteSpace=wrap;html=1;rounded=0;" vertex="1" parent="1">
          <mxGeometry x="240" y="310" width="120" height="60" as="geometry" />
        </mxCell>
        <mxCell id="5ZATOCqqzYXws7eYpptF-10" value="" style="edgeStyle=orthogonalEdgeStyle;rounded=0;orthogonalLoop=1;jettySize=auto;html=1;" edge="1" parent="1" source="5ZATOCqqzYXws7eYpptF-7" target="5ZATOCqqzYXws7eYpptF-9">
          <mxGeometry relative="1" as="geometry" />
        </mxCell>
        <mxCell id="5ZATOCqqzYXws7eYpptF-7" value="RoadMap Managment&amp;nbsp;" style="whiteSpace=wrap;html=1;rounded=0;" vertex="1" parent="1">
          <mxGeometry x="440" y="310" width="120" height="60" as="geometry" />
        </mxCell>
        <mxCell id="5ZATOCqqzYXws7eYpptF-9" value="Contract Managment&amp;nbsp;" style="whiteSpace=wrap;html=1;rounded=0;" vertex="1" parent="1">
          <mxGeometry x="630" y="310" width="120" height="60" as="geometry" />
        </mxCell>
        <mxCell id="5ZATOCqqzYXws7eYpptF-15" style="edgeStyle=orthogonalEdgeStyle;rounded=0;orthogonalLoop=1;jettySize=auto;html=1;" edge="1" parent="1" source="5ZATOCqqzYXws7eYpptF-13" target="5ZATOCqqzYXws7eYpptF-4">
          <mxGeometry relative="1" as="geometry" />
        </mxCell>
        <mxCell id="5ZATOCqqzYXws7eYpptF-13" value="Contact Managment" style="whiteSpace=wrap;html=1;rounded=0;" vertex="1" parent="1">
          <mxGeometry x="50" y="310" width="120" height="60" as="geometry" />
        </mxCell>
      </root>
    </mxGraphModel>
  </diagram>
</mxfile>
